<svg width="40" height="40" viewBox="0 0 40 40" fill="none" xmlns="http://www.w3.org/2000/svg">
<rect width="40" height="40" rx="20" fill="#527246"/>
<path d="M27 12H13C11.8954 12 11 12.8954 11 14V28C11 29.1046 11.8954 30 13 30H27C28.1046 30 29 29.1046 29 28V14C29 12.8954 28.1046 12 27 12Z" stroke="white" stroke-width="2" stroke-linecap="round" stroke-linejoin="round"/>
<path d="M24 10V14" stroke="white" stroke-width="2" stroke-linecap="round" stroke-linejoin="round"/>
<path d="M16 10V14" stroke="white" stroke-width="2" stroke-linecap="round" stroke-linejoin="round"/>
<path d="M11 18H29" stroke="white" stroke-width="2" stroke-linecap="round" stroke-linejoin="round"/>
<path d="M22.4235 22.9127L24.924 26.3438C24.9713 26.4088 24.9975 26.4835 24.9998 26.5601C25.0021 26.6367 24.9805 26.7124 24.9371 26.7794C24.8937 26.8464 24.8301 26.9022 24.7531 26.941C24.676 26.9798 24.5883 27.0002 24.4989 27H15.4971C15.4096 26.9995 15.3237 26.9794 15.2481 26.9416C15.1725 26.9037 15.1098 26.8496 15.0662 26.7844C15.0227 26.7193 14.9999 26.6455 15 26.5705C15.0001 26.4954 15.0232 26.4217 15.067 26.3567L18.5677 21.21C18.612 21.146 18.6749 21.093 18.7503 21.0562C18.8257 21.0194 18.911 21 18.9978 21C19.0846 21 19.1699 21.0194 19.2453 21.0562C19.3207 21.093 19.3836 21.146 19.4279 21.21L21.0732 23.6118L21.5733 22.9127C21.6182 22.8506 21.6807 22.7994 21.7551 22.7639C21.8295 22.7284 21.9133 22.7098 21.9984 22.7098C22.0835 22.7098 22.1673 22.7284 22.2417 22.7639C22.316 22.7994 22.3786 22.8506 22.4235 22.9127Z" fill="white"/>
<path d="M22.4235 22.9127L24.924 26.3438C24.9713 26.4088 24.9975 26.4835 24.9998 26.5601C25.0021 26.6367 24.9805 26.7124 24.9371 26.7794C24.8937 26.8464 24.8301 26.9022 24.7531 26.941C24.676 26.9798 24.5883 27.0002 24.4989 27H15.4971C15.4096 26.9995 15.3237 26.9794 15.2481 26.9416C15.1725 26.9037 15.1098 26.8496 15.0662 26.7844C15.0227 26.7193 14.9999 26.6455 15 26.5705C15.0001 26.4954 15.0232 26.4217 15.067 26.3567L18.5677 21.21C18.612 21.146 18.6749 21.093 18.7503 21.0562C18.8257 21.0194 18.911 21 18.9978 21C19.0846 21 19.1699 21.0194 19.2453 21.0562C19.3207 21.093 19.3836 21.146 19.4279 21.21L21.0732 23.6118L21.5733 22.9127C21.6182 22.8506 21.6807 22.7994 21.7551 22.7639C21.8295 22.7284 21.9133 22.7098 21.9984 22.7098C22.0835 22.7098 22.1673 22.7284 22.2417 22.7639C22.316 22.7994 22.3786 22.8506 22.4235 22.9127Z" stroke="white"/>
</svg>
