<svg width="24" height="24" viewBox="0 0 24 24" fill="none" xmlns="http://www.w3.org/2000/svg">
<path fill-rule="evenodd" clip-rule="evenodd" d="M19.407 15.068C20.37 14.39 21 13.268 21 12C21.0005 11.3983 20.856 10.8052 20.5787 10.2712C20.3014 9.73715 19.8995 9.27779 19.407 8.932C19.5107 8.33923 19.47 7.73021 19.2885 7.15649C19.1069 6.58276 18.7898 6.06122 18.364 5.636C17.9388 5.2102 17.4172 4.8931 16.8435 4.71155C16.2698 4.52999 15.6608 4.48933 15.068 4.593C14.39 3.63 13.268 3 12 3C11.3983 2.9996 10.8053 3.14415 10.2713 3.42144C9.73722 3.69873 9.27785 4.10058 8.932 4.593C8.33923 4.48933 7.73021 4.52999 7.15649 4.71155C6.58276 4.8931 6.06122 5.2102 5.636 5.636C5.21013 6.06117 4.89298 6.58271 4.71142 7.15645C4.52987 7.73019 4.48925 8.33923 4.593 8.932C3.63 9.61 3 10.732 3 12C2.99951 12.6017 3.14403 13.1948 3.42133 13.7288C3.69862 14.2629 4.10052 14.7222 4.593 15.068C4.48925 15.6608 4.52987 16.2698 4.71142 16.8436C4.89298 17.4173 5.21013 17.9388 5.636 18.364C6.06122 18.7898 6.58276 19.1069 7.15649 19.2885C7.73021 19.47 8.33923 19.5107 8.932 19.407C9.61 20.37 10.732 21 12 21C12.6017 21.0005 13.1948 20.856 13.7288 20.5787C14.2629 20.3014 14.7222 19.8995 15.068 19.407C15.6608 19.5108 16.2698 19.4701 16.8436 19.2886C17.4173 19.107 17.9388 18.7899 18.364 18.364C18.7899 17.9388 19.107 17.4173 19.2886 16.8436C19.4701 16.2698 19.5108 15.6608 19.407 15.068ZM15.6103 10.1859C15.8511 9.84887 15.773 9.38046 15.4359 9.1397C15.0989 8.89894 14.6305 8.97701 14.3897 9.31407L11.1543 13.8436L9.53033 12.2197C9.23744 11.9268 8.76256 11.9268 8.46967 12.2197C8.17678 12.5126 8.17678 12.9874 8.46967 13.2803L10.7197 15.5303C10.8756 15.6862 11.0921 15.7656 11.3119 15.7474C11.5316 15.7293 11.7322 15.6153 11.8603 15.4359L15.6103 10.1859Z" fill="#527246"/>
</svg>
