<svg width="30" height="30" class="hidden">
  <symbol fill="none" xmlns="http://www.w3.org/2000/svg" viewBox="0 0 24 24" id="building">
    <path fill-rule="evenodd" clip-rule="evenodd" d="M13.026 2.27002C13.2409 2.19847 13.4693 2.17653 13.6939 2.20586C13.9185 2.23518 14.1336 2.31499 14.3229 2.43931C14.5123 2.56363 14.6711 2.72923 14.7873 2.92367C14.9035 3.11811 14.9742 3.33636 14.994 3.56202L15 3.69402V9.18002L18.794 9.94002C19.1102 10.003 19.3976 10.1662 19.6138 10.4054C19.8299 10.6446 19.9632 10.9471 19.994 11.268L20 11.41V19H21C21.2549 19.0003 21.5 19.0979 21.6854 19.2729C21.8707 19.4478 21.9822 19.687 21.9972 19.9414C22.0121 20.1959 21.9293 20.4464 21.7657 20.6418C21.6021 20.8373 21.3701 20.9629 21.117 20.993L21 21H2.99999C2.74511 20.9997 2.49996 20.9021 2.31462 20.7272C2.12929 20.5522 2.01776 20.3131 2.00282 20.0586C1.98788 19.8042 2.07067 19.5536 2.23426 19.3582C2.39785 19.1627 2.62989 19.0371 2.88299 19.007L2.99999 19H3.99999V6.36002C3.99999 5.76002 4.35599 5.22402 4.89799 4.98602L5.02599 4.93702L13.026 2.27002ZM13 4.38802L5.99999 6.72102V19H13V4.38802ZM15 11.221V19H18V11.82L15 11.221Z" fill="#969F9A"></path>
  </symbol>
  <symbol fill="none" xmlns="http://www.w3.org/2000/svg" viewBox="0 0 24 24" id="kindergarten">
    <g clip-path="url(#clip0_244_772)">
      <path d="M13 21V14H11V21H8V8H7.41421L12 3.41421L17 8.41421L17 8.5H16V21H13ZM6 10.7324V21H3V11H5C5.36429 11 5.70583 10.9026 6 10.7324ZM18 21V11.2324C18.2942 11.4026 18.6357 11.5 19 11.5H21V21H18Z" stroke="#969F9A" stroke-width="2"></path>
      <path d="M11 14C11 13.4477 11.4477 13 12 13V13C12.5523 13 13 13.4477 13 14V15H11V14Z" fill="#969F9A"></path>
    </g>
    <defs>
      <clipPath id="clip0_244_772">
        <rect width="20" height="20" fill="white" transform="translate(2 2)"></rect>
      </clipPath>
    </defs>
  </symbol>
  <symbol fill="none" xmlns="http://www.w3.org/2000/svg" viewBox="0 0 24 24" id="lake">
    <path d="M18 3.75C18.1498 3.75003 18.2961 3.79492 18.4202 3.87886C18.5442 3.96281 18.6403 4.08197 18.696 4.221C19.194 5.463 20.136 5.997 21 5.997C21.1989 5.997 21.3897 6.07602 21.5303 6.21667C21.671 6.35732 21.75 6.54809 21.75 6.747C21.75 6.94591 21.671 7.13668 21.5303 7.27733C21.3897 7.41798 21.1989 7.497 21 7.497C19.8675 7.497 18.777 6.972 18 5.9925C17.223 6.972 16.1325 7.497 15 7.497C13.8675 7.497 12.777 6.972 12 5.9925C11.223 6.972 10.1325 7.497 9 7.497C7.8675 7.497 6.777 6.972 6 5.994C5.2245 6.975 4.134 7.5 3 7.5C2.80109 7.5 2.61032 7.42098 2.46967 7.28033C2.32902 7.13968 2.25 6.94891 2.25 6.75C2.25 6.55109 2.32902 6.36032 2.46967 6.21967C2.61032 6.07902 2.80109 6 3 6C3.864 6 4.806 5.466 5.304 4.2225C5.35979 4.08355 5.45589 3.96448 5.57993 3.88062C5.70397 3.79675 5.85027 3.75194 6 3.75194C6.14973 3.75194 6.29603 3.79675 6.42007 3.88062C6.54411 3.96448 6.64021 4.08355 6.696 4.2225C7.194 5.463 8.136 5.997 9 5.997C9.864 5.997 10.806 5.463 11.304 4.221C11.3598 4.08205 11.4559 3.96298 11.5799 3.87912C11.704 3.79525 11.8503 3.75044 12 3.75044C12.1497 3.75044 12.296 3.79525 12.4201 3.87912C12.5441 3.96298 12.6402 4.08205 12.696 4.221C13.194 5.463 14.136 5.997 15 5.997C15.864 5.997 16.806 5.463 17.304 4.221C17.3597 4.08197 17.4558 3.96281 17.5798 3.87886C17.7039 3.79492 17.8502 3.75003 18 3.75ZM18 15.75C18.1498 15.75 18.2961 15.7949 18.4202 15.8789C18.5442 15.9628 18.6403 16.082 18.696 16.221C19.194 17.463 20.136 17.997 21 17.997C21.1989 17.997 21.3897 18.076 21.5303 18.2167C21.671 18.3573 21.75 18.5481 21.75 18.747C21.75 18.9459 21.671 19.1367 21.5303 19.2773C21.3897 19.418 21.1989 19.497 21 19.497C19.8675 19.497 18.777 18.972 18 17.9925C17.223 18.972 16.1325 19.497 15 19.497C13.8675 19.497 12.777 18.972 12 17.9925C11.223 18.972 10.1325 19.497 9 19.497C7.8675 19.497 6.777 18.972 6 17.994C5.2245 18.975 4.134 19.5 3 19.5C2.80109 19.5 2.61032 19.421 2.46967 19.2803C2.32902 19.1397 2.25 18.9489 2.25 18.75C2.25 18.5511 2.32902 18.3603 2.46967 18.2197C2.61032 18.079 2.80109 18 3 18C3.864 18 4.806 17.466 5.304 16.2225C5.35979 16.0835 5.45589 15.9645 5.57993 15.8806C5.70397 15.7968 5.85027 15.7519 6 15.7519C6.14973 15.7519 6.29603 15.7968 6.42007 15.8806C6.54411 15.9645 6.64021 16.0835 6.696 16.2225C7.194 17.463 8.136 17.997 9 17.997C9.864 17.997 10.806 17.463 11.304 16.221C11.3598 16.0821 11.4559 15.963 11.5799 15.8791C11.704 15.7953 11.8503 15.7504 12 15.7504C12.1497 15.7504 12.296 15.7953 12.4201 15.8791C12.5441 15.963 12.6402 16.0821 12.696 16.221C13.194 17.463 14.136 17.997 15 17.997C15.864 17.997 16.806 17.463 17.304 16.221C17.3597 16.082 17.4558 15.9628 17.5798 15.8789C17.7039 15.7949 17.8502 15.75 18 15.75ZM18.696 10.221C18.6402 10.0821 18.5441 9.96298 18.4201 9.87912C18.296 9.79525 18.1497 9.75043 18 9.75043C17.8503 9.75043 17.704 9.79525 17.5799 9.87912C17.4559 9.96298 17.3598 10.0821 17.304 10.221C16.806 11.463 15.864 11.997 15 11.997C14.136 11.997 13.194 11.463 12.696 10.221C12.6402 10.0821 12.5441 9.96298 12.4201 9.87912C12.296 9.79525 12.1497 9.75043 12 9.75043C11.8503 9.75043 11.704 9.79525 11.5799 9.87912C11.4559 9.96298 11.3598 10.0821 11.304 10.221C10.806 11.463 9.864 11.997 9 11.997C8.136 11.997 7.194 11.463 6.696 10.221C6.64021 10.0821 6.54411 9.96298 6.42007 9.87912C6.29603 9.79525 6.14973 9.75043 6 9.75043C5.85027 9.75043 5.70397 9.79525 5.57993 9.87912C5.45589 9.96298 5.35979 10.0821 5.304 10.221C4.806 11.4675 3.864 12 3 12C2.80109 12 2.61032 12.079 2.46967 12.2197C2.32902 12.3603 2.25 12.5511 2.25 12.75C2.25 12.9489 2.32902 13.1397 2.46967 13.2803C2.61032 13.421 2.80109 13.5 3 13.5C4.134 13.5 5.2245 12.975 6 11.994C6.777 12.9735 7.8675 13.497 9 13.497C10.1325 13.497 11.223 12.972 12 11.9925C12.777 12.972 13.8675 13.497 15 13.497C16.1325 13.497 17.223 12.972 18 11.9925C18.777 12.972 19.8675 13.497 21 13.497C21.1989 13.497 21.3897 13.418 21.5303 13.2773C21.671 13.1367 21.75 12.9459 21.75 12.747C21.75 12.5481 21.671 12.3573 21.5303 12.2167C21.3897 12.076 21.1989 11.997 21 11.997C20.136 11.997 19.194 11.463 18.696 10.221Z" fill="#969F9A"></path>
  </symbol>
  <symbol fill="none" xmlns="http://www.w3.org/2000/svg" viewBox="0 0 24 24" id="school">
    <g clip-path="url(#clip0_244_928)">
      <path d="M9 8C9 7.44772 9.44772 7 10 7V7C10.5523 7 11 7.44772 11 8V8C11 8.55228 10.5523 9 10 9V9C9.44772 9 9 8.55228 9 8V8ZM13 8C13 7.44772 13.4477 7 14 7V7C14.5523 7 15 7.44772 15 8V8C15 8.55228 14.5523 9 14 9V9C13.4477 9 13 8.55228 13 8V8ZM9 12C9 11.4477 9.44772 11 10 11V11C10.5523 11 11 11.4477 11 12V12C11 12.5523 10.5523 13 10 13V13C9.44772 13 9 12.5523 9 12V12ZM13 12C13 11.4477 13.4477 11 14 11V11C14.5523 11 15 11.4477 15 12V12C15 12.5523 14.5523 13 14 13V13C13.4477 13 13 12.5523 13 12V12Z" fill="#969F9A"></path>
      <path d="M21 21H3C2.44772 21 2 20.5523 2 20V12C2 11.4477 2.44772 11 3 11H4C4.55228 11 5 10.5523 5 10V5.5C5 5.22386 4.77614 5 4.5 5C4.22386 5 4 4.77614 4 4.5V4C4 3.44772 4.44772 3 5 3H19C19.5523 3 20 3.44772 20 4V4.5C20 4.77614 19.7761 5 19.5 5C19.2239 5 19 5.22386 19 5.5V10C19 10.5523 19.4477 11 20 11H21C21.5523 11 22 11.4477 22 12V20C22 20.5523 21.5523 21 21 21Z" stroke="#969F9A"></path>
      <path d="M16 5H8C7.44772 5 7 5.44772 7 6V18C7 18.5523 7.44772 19 8 19H9C9.55228 19 10 18.5523 10 18V16C10 15.4477 10.4477 15 11 15H13C13.5523 15 14 15.4477 14 16V18C14 18.5523 14.4477 19 15 19H16C16.5523 19 17 18.5523 17 18V6C17 5.44772 16.5523 5 16 5Z" stroke="#969F9A"></path>
      <path d="M4 3H20V5H4V3Z" fill="#969F9A"></path>
      <path d="M2 19H22V21H2V19Z" fill="#969F9A"></path>
      <path d="M5 19L5 5L7 5L7 19H5Z" fill="#969F9A"></path>
      <path d="M17 19V5L19 5L19 19H17Z" fill="#969F9A"></path>
      <path d="M19 19L19 11H22V19H19Z" fill="#969F9A"></path>
      <path d="M2 19L2 11H5V19H2Z" fill="#969F9A"></path>
      <path d="M10 20V15H14V20H10Z" fill="#969F9A"></path>
    </g>
    <defs>
      <clipPath id="clip0_244_928">
        <rect width="22" height="20" fill="white" transform="translate(1 2)"></rect>
      </clipPath>
    </defs>
  </symbol>
</svg>