<svg width="0" height="0" class="hidden">
  <symbol fill="none" xmlns="http://www.w3.org/2000/svg" viewBox="0 0 24 24" id="company">
    <path fill-rule="evenodd" clip-rule="evenodd" d="M9.29289 4.29289C9.48043 4.10536 9.73478 4 10 4H14C14.2652 4 14.5196 4.10536 14.7071 4.29289C14.8946 4.48043 15 4.73478 15 5V6H9V5C9 4.73478 9.10536 4.48043 9.29289 4.29289ZM17 5V6H19C19.7957 6 20.5587 6.31607 21.1213 6.87868C21.6839 7.44129 22 8.20435 22 9V18C22 18.7957 21.6839 19.5587 21.1213 20.1213C20.5587 20.6839 19.7957 21 19 21H5C4.20435 21 3.44129 20.6839 2.87868 20.1213C2.31607 19.5587 2 18.7957 2 18V9C2 8.20435 2.31607 7.44129 2.87868 6.87868C3.44129 6.31607 4.20435 6 5 6H7V5C7 4.20435 7.31607 3.44129 7.87868 2.87868C8.44129 2.31607 9.20435 2 10 2H14C14.7956 2 15.5587 2.31607 16.1213 2.87868C16.6839 3.44129 17 4.20435 17 5ZM8 8H16H19C19.2652 8 19.5196 8.10536 19.7071 8.29289C19.8946 8.48043 20 8.73478 20 9V18C20 18.2652 19.8946 18.5196 19.7071 18.7071C19.5196 18.8946 19.2652 19 19 19H5C4.73478 19 4.48043 18.8946 4.29289 18.7071C4.10536 18.5196 4 18.2652 4 18V9C4 8.73478 4.10536 8.48043 4.29289 8.29289C4.48043 8.10536 4.73478 8 5 8H8ZM12.142 13H11.858C11.9044 13.0066 11.9518 13.01 12 13.01C12.0482 13.01 12.0956 13.0066 12.142 13Z" fill="#969F9A"></path>
    <path d="M3 13C5.79158 14.4067 8.87403 15.1394 12 15.1394C15.126 15.1394 18.2084 14.4067 21 13" stroke="#969F9A" stroke-width="2" stroke-linecap="round" stroke-linejoin="round"></path>
  </symbol>
  <symbol fill="none" xmlns="http://www.w3.org/2000/svg" viewBox="0 0 24 24" id="elevator">
    <path d="M6.77522 8.5753C6.83096 8.51942 6.89717 8.47509 6.97006 8.44484C7.04296 8.41459 7.1211 8.39903 7.20002 8.39903C7.27895 8.39903 7.35709 8.41459 7.42999 8.44484C7.50288 8.47509 7.56909 8.51942 7.62482 8.5753L9.42482 10.3753C9.48061 10.4311 9.52486 10.4973 9.55505 10.5702C9.58524 10.6431 9.60078 10.7212 9.60078 10.8001C9.60078 10.879 9.58524 10.9571 9.55505 11.03C9.52486 11.1029 9.48061 11.1691 9.42482 11.2249C9.36904 11.2807 9.30281 11.3249 9.22993 11.3551C9.15704 11.3853 9.07892 11.4009 9.00002 11.4009C8.92113 11.4009 8.84301 11.3853 8.77012 11.3551C8.69724 11.3249 8.63101 11.2807 8.57522 11.2249L7.80002 10.4485V13.8001C7.80002 13.9592 7.73681 14.1118 7.62429 14.2244C7.51177 14.3369 7.35915 14.4001 7.20002 14.4001C7.04089 14.4001 6.88828 14.3369 6.77576 14.2244C6.66324 14.1118 6.60002 13.9592 6.60002 13.8001V10.4485L5.82482 11.2249C5.76904 11.2807 5.70281 11.3249 5.62993 11.3551C5.55704 11.3853 5.47892 11.4009 5.40002 11.4009C5.32113 11.4009 5.24301 11.3853 5.17012 11.3551C5.09724 11.3249 5.03101 11.2807 4.97522 11.2249C4.91944 11.1691 4.87519 11.1029 4.845 11.03C4.81481 10.9571 4.79927 10.879 4.79927 10.8001C4.79927 10.7212 4.81481 10.6431 4.845 10.5702C4.87519 10.4973 4.91944 10.4311 4.97522 10.3753L6.77522 8.5753ZM19.0248 12.4249L17.2248 14.2249C17.1691 14.2808 17.1029 14.3251 17.03 14.3554C16.9571 14.3856 16.8789 14.4012 16.8 14.4012C16.7211 14.4012 16.643 14.3856 16.5701 14.3554C16.4972 14.3251 16.431 14.2808 16.3752 14.2249L14.5752 12.4249C14.4626 12.3122 14.3993 12.1594 14.3993 12.0001C14.3993 11.8408 14.4626 11.688 14.5752 11.5753C14.6879 11.4626 14.8407 11.3993 15 11.3993C15.1594 11.3993 15.3122 11.4626 15.4248 11.5753L16.2 12.3517V9.0001C16.2 8.84097 16.2632 8.68836 16.3758 8.57583C16.4883 8.46331 16.6409 8.4001 16.8 8.4001C16.9592 8.4001 17.1118 8.46331 17.2243 8.57583C17.3368 8.68836 17.4 8.84097 17.4 9.0001V12.3517L18.1752 11.5753C18.2879 11.4626 18.4407 11.3993 18.6 11.3993C18.7594 11.3993 18.9122 11.4626 19.0248 11.5753C19.1375 11.688 19.2008 11.8408 19.2008 12.0001C19.2008 12.1594 19.1375 12.3122 19.0248 12.4249ZM6.00002 3.6001C5.04525 3.6001 4.12957 3.97938 3.45444 4.65451C2.77931 5.32964 2.40002 6.24532 2.40002 7.2001V15.6001C2.40002 16.5549 2.77931 17.4706 3.45444 18.1457C4.12957 18.8208 5.04525 19.2001 6.00002 19.2001H18C18.9548 19.2001 19.8705 18.8208 20.5456 18.1457C21.2207 17.4706 21.6 16.5549 21.6 15.6001V7.2001C21.6 6.24532 21.2207 5.32964 20.5456 4.65451C19.8705 3.97938 18.9548 3.6001 18 3.6001H6.00002ZM11.4 4.8001V18.0001H6.00002C5.3635 18.0001 4.75306 17.7472 4.30297 17.2972C3.85288 16.8471 3.60002 16.2366 3.60002 15.6001V7.2001C3.60002 6.56358 3.85288 5.95313 4.30297 5.50304C4.75306 5.05295 5.3635 4.8001 6.00002 4.8001H11.4ZM12.6 18.0001V4.8001H18C18.6365 4.8001 19.247 5.05295 19.6971 5.50304C20.1472 5.95313 20.4 6.56358 20.4 7.2001V15.6001C20.4 16.2366 20.1472 16.8471 19.6971 17.2972C19.247 17.7472 18.6365 18.0001 18 18.0001H12.6Z" fill="#969F9A"></path>
  </symbol>
  <symbol fill="none" xmlns="http://www.w3.org/2000/svg" viewBox="0 0 24 24" id="pool">
    <path d="M6 6C6 5.73478 6.10536 5.48043 6.2929 5.29289C6.48043 5.10536 6.73479 5 7 5C7.26522 5 7.51957 5.10536 7.70711 5.29289C7.89465 5.48043 8 5.73478 8 6V12.026C8.632 12.086 9.3 12.218 10 12.441V11H16V14.485C16.6815 14.4758 17.357 14.3559 18 14.13V6C18 5.20435 17.6839 4.44129 17.1213 3.87868C16.5587 3.31607 15.7957 3 15 3C14.2044 3 13.4413 3.31607 12.8787 3.87868C12.3161 4.44129 12 5.20435 12 6C12 6.26522 12.1054 6.51957 12.2929 6.70711C12.4804 6.89464 12.7348 7 13 7C13.2652 7 13.5196 6.89464 13.7071 6.70711C13.8946 6.51957 14 6.26522 14 6C14 5.73478 14.1054 5.48043 14.2929 5.29289C14.4804 5.10536 14.7348 5 15 5C15.2652 5 15.5196 5.10536 15.7071 5.29289C15.8946 5.48043 16 5.73478 16 6V9H10V6C10 5.20435 9.68393 4.44129 9.12132 3.87868C8.55871 3.31607 7.79565 3 7 3C6.20435 3 5.44129 3.31607 4.87868 3.87868C4.31607 4.44129 4 5.20435 4 6C4 6.26522 4.10536 6.51957 4.2929 6.70711C4.48043 6.89464 4.73479 7 5 7C5.26522 7 5.51957 6.89464 5.70711 6.70711C5.89465 6.51957 6 6.26522 6 6ZM6.592 15.025C5.568 15.151 4.892 15.572 4.606 15.791C4.39489 15.9517 4.12858 16.022 3.86565 15.9864C3.60273 15.9507 3.36472 15.8121 3.204 15.601C3.04328 15.3899 2.97301 15.1236 3.00864 14.8607C3.04427 14.5977 3.18289 14.3597 3.394 14.199C3.886 13.825 4.887 13.22 6.347 13.039C7.822 12.858 9.683 13.119 11.86 14.356C15.648 16.51 18.696 15.009 19.49 14.539C19.7178 14.4092 19.9875 14.374 20.241 14.4411C20.4945 14.5082 20.7115 14.6722 20.8452 14.8978C20.979 15.1233 21.0188 15.3924 20.9561 15.647C20.8934 15.9016 20.7332 16.1214 20.51 16.259C19.433 16.897 15.561 18.761 10.871 16.095C9.035 15.051 7.603 14.9 6.592 15.025ZM4.606 19.79C4.893 19.571 5.568 19.15 6.592 19.024C7.602 18.899 9.035 19.05 10.872 20.094C15.562 22.76 19.432 20.896 20.509 20.259C20.625 20.1937 20.7268 20.1059 20.8084 20.0007C20.89 19.8955 20.9498 19.7751 20.9843 19.6466C21.0188 19.518 21.0273 19.3838 21.0092 19.2519C20.9911 19.12 20.9469 18.9931 20.8791 18.8785C20.8114 18.7639 20.7214 18.664 20.6145 18.5847C20.5076 18.5053 20.3859 18.4481 20.2567 18.4164C20.1274 18.3847 19.993 18.3791 19.8616 18.4C19.7301 18.4209 19.6041 18.4678 19.491 18.538C18.696 19.008 15.648 20.509 11.86 18.355C9.683 17.118 7.822 16.857 6.347 17.039C4.887 17.219 3.887 17.824 3.394 18.199C3.19119 18.3625 3.06019 18.5987 3.02887 18.8573C2.99756 19.1159 3.0684 19.3766 3.22633 19.5837C3.38426 19.7909 3.6168 19.9283 3.87447 19.9666C4.13214 20.005 4.3946 19.9412 4.606 19.789V19.79Z" fill="#969F9A"></path>
  </symbol>
  <symbol fill="none" xmlns="http://www.w3.org/2000/svg" viewBox="0 0 24 24" id="spa-zone">
    <path d="M12 22C10.7833 21.85 9.575 21.5207 8.375 21.012C7.175 20.5033 6.10433 19.7743 5.163 18.825C4.221 17.875 3.45833 16.675 2.875 15.225C2.29167 13.775 2 12.0333 2 10V9H3C3.85 9 4.725 9.10833 5.625 9.325C6.525 9.54167 7.36667 9.86667 8.15 10.3C8.35 8.86667 8.80433 7.39567 9.513 5.887C10.2217 4.37833 11.0507 3.08267 12 2C12.95 3.08333 13.7793 4.37933 14.488 5.888C15.1967 7.39667 15.6507 8.86733 15.85 10.3C16.6333 9.86667 17.475 9.54167 18.375 9.325C19.275 9.10833 20.15 9 21 9H22V10C22 12.0333 21.7083 13.775 21.125 15.225C20.5417 16.675 19.779 17.875 18.837 18.825C17.8957 19.775 16.829 20.5043 15.637 21.013C14.445 21.5217 13.2327 21.8507 12 22ZM11.95 19.95C11.7667 17.1833 10.9457 15.0917 9.487 13.675C8.02833 12.2583 6.216 11.3833 4.05 11.05C4.23333 13.9 5.07933 16.025 6.588 17.425C8.09667 18.825 9.884 19.6667 11.95 19.95ZM12 13.6C12.25 13.2333 12.5543 12.854 12.913 12.462C13.2717 12.07 13.6173 11.7327 13.95 11.45C13.9167 10.5 13.7293 9.50833 13.388 8.475C13.0467 7.44167 12.584 6.43333 12 5.45C11.4167 6.43333 10.954 7.44167 10.612 8.475C10.27 9.50833 10.0827 10.5 10.05 11.45C10.3833 11.7333 10.7333 12.071 11.1 12.463C11.4667 12.855 11.7667 13.234 12 13.6ZM13.95 19.5C14.5667 19.3 15.2083 19.0083 15.875 18.625C16.5417 18.2417 17.1627 17.7207 17.738 17.062C18.3127 16.404 18.8043 15.5833 19.213 14.6C19.6217 13.6167 19.8673 12.4333 19.95 11.05C18.3833 11.2833 17.0083 11.8043 15.825 12.613C14.6417 13.4217 13.7333 14.4507 13.1 15.7C13.3 16.2333 13.471 16.8167 13.613 17.45C13.755 18.0833 13.8673 18.7667 13.95 19.5Z" fill="#969F9A"></path>
  </symbol>
  <symbol fill="none" xmlns="http://www.w3.org/2000/svg" viewBox="0 0 24 24" id="terrace">
    <path d="M3 13.4651V16.3953C3 16.8394 3.18061 17.2653 3.5021 17.5793C3.82359 17.8934 4.25963 18.0698 4.71429 18.0698H5.42857C5.98086 18.0698 6.42857 18.5175 6.42857 19.0698V21M21 13.4651V16.3953C21 16.8394 20.8194 17.2653 20.4979 17.5793C20.1764 17.8934 19.7404 18.0698 19.2857 18.0698H18.5714C18.0191 18.0698 17.5714 18.5175 17.5714 19.0698V21M12 8.86047V14.3023M6 15.5581H18M12 15.5581V21M20.9263 7.18605V7.18605C20.967 7.18605 21 7.21905 21 7.25976V8.02326C21 8.48563 20.6252 8.86047 20.1628 8.86047H3.83721C3.37483 8.86047 3 8.48563 3 8.02326V7.25976C3 7.21905 3.033 7.18605 3.07371 7.18605V7.18605C3.30978 7.18606 3.54543 7.16701 3.77829 7.12912L4.11771 7.07386C7.01046 6.60276 9.67242 5.23833 11.7129 3.18084L11.8173 3.07594C11.8657 3.02733 11.9314 3 12 3V3C12.0686 3 12.1343 3.02733 12.1827 3.07594L12.2871 3.18084C14.3276 5.23833 16.9895 6.60276 19.8823 7.07386L20.2217 7.12912C20.4546 7.16701 20.6902 7.18606 20.9263 7.18605Z" stroke="#969F9A" stroke-width="2"></path>
  </symbol>
</svg>